# xmcd
# Track frame offsets:
# 150
# 16000
# 27950
# 51874
# 66359
# 79831
# 96306
# 103125
# 112683
# 128292
# 141331
# 154907
#
# Disc length: 2466 seconds
# Revision: 0
# Processed by: cddbd v1.4PL0 Copyright (c) Steve Scherf et al.
# Submitted via: VisiTrax 2.9.2.167 - For more info visit www.synapsa.com
#
DISCID=9509a00c
DTITLE=Black Twig Pickers - Soon One Morning
DYEAR=1900
DGENRE=
TTITLE0=John Brown's Dream
TTITLE1=Ironto Special
TTITLE2=Floyd Allen
TTITLE3=31 Meek Blues
TTITLE4=Lightning Strike
TTITLE5=Pallet On Your Floor
TTITLE6=Roanoke Cindy
TTITLE7=Waiting On My Rider Back From Town
TTITLE8=Have You Been To Alabama?
TTITLE9=Lost Indian
TTITLE10=Oh Death
TTITLE11=This War Is Killing Me
EXTD=c 2003 VHF Records\n\nBill Kellum  -  Artwork, Photography, Layout Des
EXTD=ign
EXTT0=Review\n\nProgressive bluegrass in the style of some of Leo Kottke o
EXTT0=r John Fahey's more roots-oriented salvos, the second album by Virgini
EXTT0=a's Black Twig Pickers marries unusual instrumentation like cello an
EXTT0=d baritone banjo, along with some Fahey-like drones and other Easter
EXTT0=n influences, to a set heavy on the traditional folk. As a result, fam
EXTT0=iliar ? some might even say clichéd ? tunes like "Make Me A Pallet o
EXTT0=n the Floor" and the increasingly overused "O Death" get new life brea
EXTT0=thed into them. In the case of the latter, the song is transformed, wi
EXTT0=th Mike Gangloff and Ralph Berrier Jr's bitter call and response vocal
EXTT0=s and surprisingly aggressive, percussive instrumental attack recallin
EXTT0=g the psychedelic rock versions of Kaleidoscope and Camper Van Beethov
EXTT0=en more than, say, Ralph Stanley's better-known rendition. The origina
EXTT0=ls are even better, with the handful of instrumentals the best of all
EXTT0=, particularly the heartbreaking, haunting closer "This War Is Killin
EXTT0=g Me" and Gangloff's almost jazzy solo workout for the peculiar barito
EXTT0=ne banjo, "Ironto Special," which marries a cyclical fingerpicked melo
EXTT0=dy to a hypnotic drone.  Stewart Mason
EXTT1=
EXTT2=
EXTT3=
EXTT4=
EXTT5=
EXTT6=
EXTT7=
EXTT8=
EXTT9=
EXTT10=
EXTT11=
PLAYORDER=
